<svg viewBox="0 0 800 500" preserveAspectRatio="none" xmlns="http://www.w3.org/2000/svg" xmlns:xlink="http://www.w3.org/1999/xlink" width="100%" id="blobSvg">
  <g transform="translate(145.36246871948242, -1.372344970703125)">
    <defs>
      <pattern id="pattern" x="0" y="0" width="8" height="8" patternUnits="userSpaceOnUse" fill="#d1d8e0">
        <path d="M0 0h4v4H0V0zm4 4h4v4H4V4z"></path>
      </pattern>
    </defs>
    <path class="blob" d="M489,290Q484,330,459,361.5Q434,393,405.5,418.5Q377,444,342,460Q307,476,268.5,486.5Q230,497,193,480.5Q156,464,125.5,441Q95,418,65.5,392Q36,366,21,328.5Q6,291,15.5,252Q25,213,31.5,174Q38,135,64.5,106.5Q91,78,121,51.5Q151,25,190,13Q229,1,268,13.5Q307,26,342,40.5Q377,55,406.5,80Q436,105,460,137.5Q484,170,489,210Q494,250,489,290Z" fill="url(#pattern)"></path>
  </g>
</svg>